<?xml version="1.0" standalone="no"?>
<!DOCTYPE svg PUBLIC "-//W3C//DTD SVG 20010904//EN"
 "http://www.w3.org/TR/2001/REC-SVG-20010904/DTD/svg10.dtd">
<svg version="1.0" xmlns="http://www.w3.org/2000/svg"
 width="700.000000pt" height="700.000000pt" viewBox="0 0 700.000000 700.000000"
 preserveAspectRatio="xMidYMid meet">
<metadata>
Created by potrace 1.14, written by Peter Selinger 2001-2017
</metadata>
<g transform="translate(0.000000,700.000000) scale(0.100000,-0.100000)"
fill="#000000" stroke="none">
<path d="M3619 6806 c-2 -2 -44 -6 -94 -10 -49 -3 -100 -8 -111 -10 -12 -3
-39 -7 -60 -11 -84 -13 -102 -17 -203 -41 -104 -24 -284 -82 -351 -111 -146
-65 -266 -129 -405 -216 -267 -168 -597 -503 -775 -787 -128 -204 -265 -520
-294 -674 -2 -11 -11 -48 -19 -81 -9 -33 -19 -82 -23 -110 -3 -27 -8 -53 -10
-56 -2 -4 -6 -31 -9 -61 -3 -30 -8 -66 -11 -79 -9 -42 -13 -470 -4 -554 13
-133 21 -199 25 -215 3 -8 7 -31 10 -50 33 -198 116 -444 221 -654 49 -98 172
-299 216 -351 9 -11 43 -54 76 -95 62 -78 221 -243 307 -320 542 -483 1247
-693 2030 -604 157 17 494 98 564 134 9 5 43 19 76 31 84 32 286 136 375 193
151 97 305 221 434 350 72 72 145 147 161 166 119 140 224 292 309 449 31 57
56 105 56 107 0 2 13 32 29 66 24 54 115 303 111 303 -1 0 3 19 9 42 17 61 49
221 57 278 3 28 8 59 10 70 8 39 18 231 18 340 -1 210 -23 438 -59 595 -3 14
-8 36 -11 50 -7 39 -63 219 -86 280 -92 242 -245 505 -402 695 -92 110 -233
252 -346 349 -104 90 -97 85 -255 191 -301 202 -674 340 -1030 380 -33 4 -73
9 -90 11 -39 6 -441 15 -446 10z m386 -950 c383 -52 692 -208 950 -482 234
-250 379 -577 412 -931 37 -403 -42 -774 -226 -1068 -58 -92 -65 -101 -140
-189 -118 -138 -297 -282 -451 -363 -116 -60 -288 -123 -380 -138 -19 -3 -53
-10 -75 -15 -102 -22 -325 -31 -475 -18 -554 48 -1044 390 -1274 891 -33 72
-89 238 -100 297 -3 14 -10 50 -16 80 -33 166 -33 476 -1 655 18 96 19 100 40
177 42 147 105 284 192 416 66 101 116 160 222 264 244 238 534 376 892 423
93 12 342 12 430 1z"/>
<path d="M1082 1339 c-162 -45 -314 -176 -377 -324 -120 -283 -11 -603 256
-753 87 -48 159 -65 279 -65 101 0 124 3 190 28 160 59 275 163 339 307 76
170 73 340 -10 507 -75 151 -216 263 -384 306 -76 20 -212 17 -293 -6z"/>
</g>
</svg>
